<?xml version="1.0" encoding="UTF-8"?>
<svg xmlns="http://www.w3.org/2000/svg" xmlns:xlink="http://www.w3.org/1999/xlink" width="16px" height="12px" viewBox="0 0 15 12" version="1.1">
<defs>
<filter id="alpha" filterUnits="objectBoundingBox" x="0%" y="0%" width="100%" height="100%">
  <feColorMatrix type="matrix" in="SourceGraphic" values="0 0 0 0 1 0 0 0 0 1 0 0 0 0 1 0 0 0 1 0"/>
</filter>
<mask id="mask0">
  <g filter="url(#alpha)">
<rect x="0" y="0" width="15" height="12" style="fill:rgb(0%,0%,0%);fill-opacity:0.0705882;stroke:none;"/>
  </g>
</mask>
<clipPath id="clip1">
  <rect x="0" y="0" width="15" height="12"/>
</clipPath>
<g id="surface5" clip-path="url(#clip1)">
<path style=" stroke:none;fill-rule:evenodd;fill:rgb(0%,0%,0%);fill-opacity:1;" d="M 6.605469 0.601562 C 6.59375 0.601562 6.585938 0.601562 6.574219 0.601562 C 6.339844 0.601562 6.167969 0.832031 6.089844 1.046875 C 6.007812 1.292969 6.023438 1.585938 6.15625 1.808594 C 6.183594 1.859375 6.25 1.882812 6.269531 1.933594 C 6.234375 1.996094 6.175781 1.914062 6.148438 1.886719 C 6.089844 1.835938 6.058594 1.761719 6.035156 1.691406 C 6.015625 1.695312 5.988281 1.703125 5.96875 1.714844 C 5.96875 1.714844 5.972656 1.714844 5.972656 1.710938 C 5.675781 1.859375 5.335938 2.0625 5.144531 2.222656 C 4.914062 2.417969 4.773438 2.617188 4.71875 2.867188 C 4.636719 3.265625 4.683594 3.601562 4.738281 4.039062 C 4.792969 4.472656 4.847656 4.996094 4.773438 5.714844 C 4.679688 6.574219 4.484375 6.980469 4.125 7.832031 C 4.03125 8.046875 3.9375 8.296875 3.898438 8.53125 C 3.859375 8.765625 3.875 8.96875 3.964844 9.125 C 4.171875 9.484375 4.539062 9.703125 4.976562 9.835938 C 5.414062 9.964844 5.914062 10 6.355469 10 C 7.183594 10.003906 8.054688 9.648438 8.738281 9.109375 C 8.832031 9.035156 8.917969 8.953125 8.996094 8.863281 C 7.898438 9.335938 7.050781 9.433594 6.578125 9.394531 C 5.605469 9.320312 5.339844 8.707031 5.363281 8.058594 C 5.390625 7.410156 5.671875 7.523438 5.777344 5.78125 C 5.855469 4.441406 5.488281 4.375 5.515625 2.878906 C 5.523438 2.523438 5.648438 2.222656 5.863281 2.011719 C 5.941406 1.933594 6.160156 1.910156 6.210938 1.949219 C 6.289062 2.011719 6.359375 1.964844 6.464844 1.929688 C 6.570312 1.894531 6.417969 1.78125 6.367188 1.71875 C 6.308594 1.636719 6.238281 1.519531 6.203125 1.3125 C 6.179688 1.15625 6.386719 0.769531 6.707031 0.617188 C 6.675781 0.605469 6.640625 0.601562 6.605469 0.601562 Z M 6.605469 0.601562 "/>
<path style=" stroke:none;fill-rule:nonzero;fill:rgb(0%,0%,0%);fill-opacity:1;" d="M 6.757812 6.230469 C 6.515625 6.628906 6.527344 7.105469 6.601562 7.273438 C 6.675781 7.441406 6.957031 7.449219 6.980469 7.394531 C 7 7.339844 7.023438 7.253906 6.980469 7.027344 C 6.9375 6.796875 6.851562 6.609375 6.882812 6.511719 C 6.914062 6.414062 6.757812 6.230469 6.757812 6.230469 Z M 6.757812 6.230469 "/>
<path style=" stroke:none;fill-rule:nonzero;fill:rgb(0%,0%,0%);fill-opacity:1;" d="M 8.542969 0.4375 C 8.464844 0.449219 8.390625 0.476562 8.320312 0.511719 C 8.203125 0.578125 8.089844 0.675781 8.039062 0.808594 C 8.011719 0.871094 8.003906 0.941406 8.003906 1.007812 C 7.996094 1.023438 8.011719 1.035156 8.027344 1.03125 C 8.210938 1.03125 8.394531 1.050781 8.574219 1.085938 C 8.609375 1.09375 8.640625 1.101562 8.675781 1.109375 C 8.558594 1.058594 8.277344 1.042969 8.269531 0.886719 C 8.257812 0.742188 8.308594 0.679688 8.402344 0.566406 C 8.4375 0.523438 8.484375 0.480469 8.542969 0.4375 Z M 8.542969 0.4375 "/>
<path style=" stroke:none;fill-rule:nonzero;fill:rgb(0%,0%,0%);fill-opacity:1;" d="M 9.789062 4.902344 C 9.703125 4.949219 9.628906 5.070312 9.628906 5.144531 C 9.628906 5.285156 9.71875 5.34375 9.75 5.351562 C 9.78125 5.359375 9.847656 5.355469 9.847656 5.394531 C 9.851562 5.433594 9.855469 5.632812 9.859375 5.667969 C 9.863281 5.703125 9.863281 5.738281 9.972656 5.730469 C 10.082031 5.722656 10.183594 5.695312 10.199219 5.683594 C 10.210938 5.671875 10.242188 5.640625 10.25 5.59375 C 10.261719 5.546875 10.289062 5.289062 10.210938 5.199219 C 10.128906 5.109375 10.0625 5.078125 10.007812 5.023438 C 9.949219 4.972656 9.789062 4.902344 9.789062 4.902344 Z M 9.789062 4.902344 "/>
</g>
<mask id="mask1">
  <g filter="url(#alpha)">
<rect x="0" y="0" width="15" height="12" style="fill:rgb(0%,0%,0%);fill-opacity:0.0705882;stroke:none;"/>
  </g>
</mask>
<clipPath id="clip2">
  <rect x="0" y="0" width="15" height="12"/>
</clipPath>
<g id="surface8" clip-path="url(#clip2)">
<path style=" stroke:none;fill-rule:nonzero;fill:rgb(0%,0%,0%);fill-opacity:1;" d="M 8.195312 2.34375 C 7.703125 2.347656 7.210938 2.621094 6.949219 3.070312 C 6.722656 3.449219 6.679688 3.925781 6.765625 4.355469 C 6.847656 4.753906 7.039062 5.144531 7.351562 5.386719 C 7.574219 5.554688 7.847656 5.652344 8.121094 5.640625 C 8.378906 5.648438 8.632812 5.558594 8.855469 5.429688 C 8.964844 5.367188 9.066406 5.289062 9.15625 5.199219 C 9.007812 5.21875 8.835938 5.226562 8.636719 5.230469 C 7.734375 5.238281 7.347656 4.613281 7.304688 3.925781 C 7.269531 3.410156 7.390625 2.796875 8.242188 2.34375 C 8.226562 2.34375 8.210938 2.34375 8.195312 2.34375 Z M 8.195312 2.34375 "/>
<path style=" stroke:none;fill-rule:nonzero;fill:rgb(0%,0%,0%);fill-opacity:1;" d="M 10.195312 2.390625 C 10.074219 2.402344 9.949219 2.460938 9.890625 2.578125 C 9.832031 2.6875 9.84375 2.816406 9.847656 2.9375 C 9.875 3.175781 9.933594 3.414062 9.960938 3.652344 C 9.996094 3.875 10.007812 4.101562 10.070312 4.320312 C 10.09375 4.394531 10.132812 4.476562 10.191406 4.53125 C 10.242188 4.558594 10.304688 4.542969 10.355469 4.570312 C 10.398438 4.585938 10.425781 4.628906 10.457031 4.664062 C 10.5 4.6875 10.546875 4.65625 10.589844 4.648438 C 10.65625 4.621094 10.714844 4.582031 10.769531 4.539062 C 10.714844 4.539062 10.664062 4.539062 10.628906 4.539062 C 10.417969 4.539062 10.320312 4.394531 10.222656 4.28125 C 10.125 4.171875 10.015625 3.089844 10.054688 2.871094 C 10.078125 2.757812 10.066406 2.597656 10.195312 2.390625 Z M 10.195312 2.390625 "/>
</g>
</defs>
<g id="surface1">
<path style=" stroke:none;fill-rule:evenodd;fill:rgb(76.862746%,67.058825%,58.431375%);fill-opacity:1;" d="M 2.945312 11.59375 L 4.199219 10.234375 L 5.503906 10.664062 L 5.804688 10.390625 L 6.191406 10.785156 L 7.21875 10.015625 L 8.691406 10 L 9.03125 10.5 L 9.203125 9.402344 L 9.78125 9.261719 L 10.152344 8.613281 L 11.613281 8.949219 L 10.941406 7.78125 L 10.914062 6.84375 L 12.214844 7.039062 L 11.398438 6.753906 L 11.527344 5.96875 L 11.265625 5.378906 L 11.730469 5.203125 L 12.070312 5.609375 L 12.5 5.003906 C 12.5 5.003906 13.359375 5.300781 13.382812 5.3125 C 13.410156 5.328125 14.632812 5.195312 14.632812 5.195312 C 14.632812 5.195312 14.378906 5.90625 14.3125 5.90625 C 14.246094 5.90625 12.960938 5.765625 12.855469 5.820312 C 12.746094 5.878906 12.523438 6.429688 12.535156 6.609375 C 12.546875 6.792969 12.558594 6.957031 12.535156 7.046875 C 12.457031 7.347656 12.203125 7.257812 11.964844 7.5 C 11.726562 7.738281 11.882812 8.0625 11.964844 8.289062 C 12.042969 8.515625 11.882812 9.316406 11.882812 9.386719 C 11.882812 9.457031 11.113281 9.640625 10.875 9.8125 C 10.636719 9.980469 10.542969 10.726562 10.4375 10.8125 C 10.332031 10.894531 9.257812 11.066406 9.042969 10.910156 C 8.832031 10.753906 8.113281 10.671875 7.808594 10.839844 C 7.503906 11.007812 7.144531 11.207031 7.011719 11.261719 C 6.878906 11.320312 6.003906 11.304688 5.898438 11.179688 C 5.792969 11.050781 5.214844 11.0625 4.875 11.09375 C 4.652344 11.117188 4.441406 11.21875 4.226562 11.277344 C 3.800781 11.390625 2.945312 11.59375 2.945312 11.59375 Z M 2.945312 11.59375 "/>
<path style="fill:none;stroke-width:4;stroke-linecap:butt;stroke-linejoin:miter;stroke:rgb(27.058825%,23.529412%,20.784314%);stroke-opacity:1;stroke-miterlimit:4;" d="M 144.69572 760.436051 L 206.387909 697.451675 L 270.578536 717.36053 L 285.376973 704.691259 L 304.403536 722.971207 L 354.94885 687.316258 L 427.403539 686.5923 L 444.123852 709.758967 L 452.580102 658.900893 L 481.023852 652.385268 L 499.281665 622.340996 L 571.159792 637.906101 L 538.103541 583.790214 L 536.758229 540.352713 L 600.756667 549.402193 L 560.589479 536.189953 L 566.931667 499.811046 L 554.055104 472.481618 L 576.925417 464.337087 L 593.64573 483.160004 L 614.786355 455.106618 C 614.786355 455.106618 657.067606 468.861827 658.220731 469.404795 C 659.566044 470.128754 719.720732 463.975108 719.720732 463.975108 " transform="matrix(0.0203252,0,0,0.0215827,0.00434263,-4.818539)"/>
<path style=" stroke:none;fill-rule:evenodd;fill:rgb(29.411766%,22.352941%,46.666667%);fill-opacity:1;" d="M 1.246094 5.542969 L 1.621094 5.359375 L 1.90625 5.292969 L 1.941406 4.550781 L 1.496094 4.570312 L 1.097656 4.851562 Z M 1.246094 5.542969 "/>
<path style="fill:none;stroke-width:2;stroke-linecap:butt;stroke-linejoin:miter;stroke:rgb(23.921569%,18.82353%,37.254903%);stroke-opacity:1;stroke-miterlimit:4;" d="M 60.901969 480.44516 C 68.973844 477.187348 89.153532 467.594899 95.111344 466.327972 " transform="matrix(0.0203252,0,0,0.0215827,0.00434263,-4.818539)"/>
<path style=" stroke:none;fill-rule:evenodd;fill:rgb(29.411766%,22.352941%,46.666667%);fill-opacity:1;" d="M 1.066406 4.277344 L 1.476562 4.3125 L 1.765625 4.269531 L 2.042969 4.953125 L 1.617188 5.097656 L 1.152344 4.984375 Z M 1.066406 4.277344 "/>
<path style="fill:none;stroke-width:2;stroke-linecap:butt;stroke-linejoin:miter;stroke:rgb(23.921569%,18.82353%,37.254903%);stroke-opacity:1;stroke-miterlimit:4;" d="M 50.716031 419.27068 C 61.094156 424.157399 82.042594 422.347503 87.808219 420.718596 " transform="matrix(0.0203252,0,0,0.0215827,0.00434263,-4.818539)"/>
<path style=" stroke:none;fill-rule:nonzero;fill:rgb(23.921569%,18.82353%,37.254903%);fill-opacity:1;" d="M 1.5625 4.800781 C 1.496094 4.410156 1.171875 4.140625 0.84375 4.207031 C 0.515625 4.269531 0.304688 4.640625 0.371094 5.035156 C 0.441406 5.429688 0.761719 5.695312 1.089844 5.632812 C 1.421875 5.566406 1.632812 5.195312 1.5625 4.800781 Z M 1.5625 4.800781 "/>
<path style=" stroke:none;fill-rule:nonzero;fill:rgb(64.705884%,56.862748%,83.529413%);fill-opacity:1;" d="M 1.503906 4.824219 C 1.441406 4.472656 1.152344 4.234375 0.859375 4.289062 C 0.5625 4.347656 0.375 4.679688 0.4375 5.035156 C 0.496094 5.386719 0.785156 5.625 1.082031 5.566406 C 1.375 5.511719 1.566406 5.179688 1.503906 4.824219 Z M 1.503906 4.824219 "/>
<path style=" stroke:none;fill-rule:nonzero;fill:rgb(23.921569%,18.82353%,37.254903%);fill-opacity:1;" d="M 0.980469 4.945312 C 0.949219 4.863281 0.890625 4.816406 0.84375 4.835938 C 0.800781 4.855469 0.789062 4.933594 0.820312 5.015625 C 0.851562 5.09375 0.914062 5.144531 0.957031 5.125 C 1 5.105469 1.011719 5.023438 0.980469 4.945312 Z M 0.980469 4.945312 "/>
<path style=" stroke:none;fill-rule:nonzero;fill:rgb(58.823532%,52.156866%,75.294119%);fill-opacity:1;" d="M 1.394531 4.542969 C 1.386719 4.648438 1.347656 4.984375 1.222656 5.113281 C 1.085938 5.257812 0.976562 5.390625 0.5625 5.335938 C 0.691406 5.515625 0.890625 5.605469 1.082031 5.566406 C 1.375 5.511719 1.566406 5.179688 1.503906 4.824219 C 1.484375 4.722656 1.449219 4.628906 1.394531 4.542969 Z M 1.394531 4.542969 "/>
<path style=" stroke:none;fill-rule:evenodd;fill:rgb(15.686275%,25.098041%,12.941177%);fill-opacity:1;" d="M 4.484375 3.261719 C 4.390625 2.878906 4.105469 2.664062 3.679688 2.601562 C 3.582031 2.445312 3.519531 2.308594 3.316406 2.199219 C 3.105469 2.15625 2.820312 2.113281 2.511719 2.191406 C 2.335938 2.570312 2.214844 3.242188 2.425781 3.617188 C 2.757812 4.203125 3.496094 4.292969 4.105469 4.058594 C 4.429688 3.933594 4.570312 3.617188 4.484375 3.261719 Z M 4.484375 3.261719 "/>
<path style=" stroke:none;fill-rule:evenodd;fill:rgb(64.705884%,79.215688%,60.392159%);fill-opacity:1;" d="M 2.945312 2.234375 C 2.828125 2.226562 2.699219 2.238281 2.566406 2.265625 C 2.492188 2.445312 2.425781 2.679688 2.402344 2.914062 C 2.378906 3.164062 2.402344 3.410156 2.492188 3.570312 C 2.648438 3.84375 2.894531 4 3.179688 4.0625 C 3.464844 4.125 3.785156 4.089844 4.078125 3.980469 C 4.371094 3.867188 4.484375 3.605469 4.40625 3.285156 C 4.320312 2.929688 4.078125 2.746094 3.667969 2.683594 C 3.648438 2.679688 3.628906 2.667969 3.617188 2.648438 C 3.511719 2.492188 3.464844 2.378906 3.289062 2.277344 C 3.1875 2.257812 3.070312 2.238281 2.945312 2.234375 Z M 2.945312 2.234375 "/>
<path style=" stroke:none;fill-rule:evenodd;fill:rgb(15.686275%,25.098041%,12.941177%);fill-opacity:1;" d="M 4.855469 2.8125 C 4.488281 2.691406 4.289062 3.214844 3.90625 3.195312 C 3.472656 3.175781 3.0625 3.042969 2.65625 2.90625 C 2.363281 2.804688 2.007812 2.6875 1.722656 2.855469 C 1.488281 2.988281 1.546875 3.320312 1.523438 3.558594 C 1.460938 4.152344 1.53125 4.75 1.546875 5.347656 C 1.5625 5.875 1.605469 6.402344 1.597656 6.929688 C 1.59375 7.359375 1.285156 7.679688 1.226562 8.101562 C 1.160156 8.566406 1.144531 9.121094 1.457031 9.480469 C 1.835938 9.914062 2.429688 10.113281 2.976562 10.109375 C 3.378906 10.105469 3.726562 9.796875 4.007812 9.511719 C 4.417969 9.097656 4.511719 8.480469 4.539062 7.914062 C 4.5625 7.382812 4.644531 6.855469 4.859375 6.371094 C 5.113281 5.800781 5.394531 5.214844 5.378906 4.558594 C 5.367188 4.03125 5.410156 3.433594 5.082031 2.996094 C 5.023438 2.914062 4.945312 2.84375 4.855469 2.8125 Z M 4.855469 2.8125 "/>
<path style=" stroke:none;fill-rule:evenodd;fill:rgb(64.705884%,79.215688%,60.392159%);fill-opacity:1;" d="M 2.0625 2.902344 C 1.960938 2.898438 1.867188 2.917969 1.78125 2.96875 C 1.707031 3.011719 1.679688 3.074219 1.667969 3.183594 C 1.652344 3.296875 1.660156 3.4375 1.644531 3.574219 C 1.585938 4.144531 1.652344 4.738281 1.667969 5.34375 C 1.683594 5.863281 1.730469 6.394531 1.722656 6.929688 C 1.71875 7.179688 1.628906 7.386719 1.542969 7.574219 C 1.457031 7.765625 1.371094 7.9375 1.347656 8.121094 C 1.28125 8.574219 1.277344 9.082031 1.546875 9.390625 C 1.898438 9.792969 2.457031 9.984375 2.972656 9.980469 C 3.320312 9.976562 3.644531 9.699219 3.925781 9.417969 C 4.296875 9.042969 4.386719 8.464844 4.414062 7.90625 C 4.441406 7.367188 4.523438 6.820312 4.75 6.316406 C 5.003906 5.742188 5.269531 5.175781 5.257812 4.5625 C 5.242188 4.023438 5.277344 3.464844 4.984375 3.074219 C 4.933594 3.007812 4.875 2.953125 4.820312 2.9375 C 4.753906 2.914062 4.707031 2.921875 4.652344 2.945312 C 4.59375 2.96875 4.53125 3.015625 4.460938 3.070312 C 4.320312 3.179688 4.144531 3.335938 3.902344 3.324219 C 3.449219 3.304688 3.027344 3.167969 2.617188 3.027344 C 2.4375 2.96875 2.238281 2.902344 2.0625 2.902344 Z M 2.0625 2.902344 "/>
<path style=" stroke:none;fill-rule:evenodd;fill:rgb(51.764709%,65.098041%,47.843137%);fill-opacity:1;" d="M 4.285156 4.207031 L 4.359375 5.535156 L 4.210938 6.308594 L 3.574219 7.832031 L 3.074219 9.445312 C 3.058594 9.625 3.015625 9.800781 3.066406 9.972656 C 3.375 9.925781 3.667969 9.675781 3.925781 9.417969 C 3.972656 9.367188 4.015625 9.316406 4.054688 9.265625 L 4.15625 9.023438 L 4.289062 8.761719 C 4.371094 8.492188 4.402344 8.195312 4.414062 7.90625 C 4.441406 7.367188 4.523438 6.820312 4.75 6.316406 C 5.003906 5.742188 5.269531 5.175781 5.257812 4.5625 C 5.253906 4.558594 5.253906 4.554688 5.253906 4.550781 Z M 4.285156 4.207031 "/>
<path style=" stroke:none;fill-rule:evenodd;fill:rgb(51.764709%,65.098041%,47.843137%);fill-opacity:1;" d="M 3.675781 3.757812 C 3.640625 3.757812 3.605469 3.761719 3.570312 3.765625 C 3.359375 3.792969 3.089844 3.882812 3.011719 4.09375 C 2.96875 4.214844 3.175781 4.34375 3.128906 4.46875 C 3.089844 4.574219 2.84375 4.515625 2.847656 4.628906 C 2.851562 4.710938 3.058594 4.644531 3.070312 4.726562 C 3.078125 4.789062 2.941406 4.789062 2.933594 4.851562 C 2.914062 4.980469 3.152344 5.054688 3.125 5.179688 C 3.09375 5.339844 2.933594 5.703125 2.710938 5.851562 C 2.449219 6.035156 1.855469 5.742188 1.679688 5.648438 C 1.6875 5.796875 1.695312 5.949219 1.703125 6.101562 C 1.992188 6.332031 2.503906 6.230469 2.816406 6.03125 C 3.074219 5.863281 3.253906 5.503906 3.246094 5.183594 C 3.246094 5.070312 3.089844 5 3.082031 4.882812 C 3.078125 4.824219 3.164062 4.773438 3.148438 4.71875 C 3.128906 4.65625 2.984375 4.683594 2.988281 4.617188 C 2.996094 4.523438 3.195312 4.59375 3.234375 4.511719 C 3.28125 4.40625 3.117188 4.28125 3.15625 4.171875 C 3.207031 4.03125 3.367188 3.933594 3.507812 3.917969 C 4.050781 3.847656 4.605469 4.875 5.042969 4.523438 C 5.113281 4.46875 5.148438 4.371094 5.152344 4.261719 L 5.121094 4.222656 C 5.121094 4.222656 4.226562 3.761719 3.675781 3.757812 Z M 3.675781 3.757812 "/>
<path style=" stroke:none;fill-rule:evenodd;fill:rgb(15.686275%,25.098041%,12.941177%);fill-opacity:1;" d="M 3.285156 8.953125 C 3.410156 8.585938 3.496094 8.203125 3.640625 7.84375 C 3.804688 7.425781 4.03125 7.039062 4.175781 6.617188 C 4.265625 6.355469 4.332031 6.082031 4.371094 5.808594 C 4.402344 5.566406 4.441406 5.324219 4.421875 5.074219 C 4.402344 4.804688 4.398438 4.535156 4.355469 4.265625 C 4.335938 4.140625 4.339844 4.007812 4.265625 3.902344 C 4.25 3.875 4.136719 3.96875 4.144531 4.023438 C 4.195312 4.367188 4.265625 4.710938 4.285156 5.054688 C 4.296875 5.28125 4.320312 5.515625 4.269531 5.730469 C 4.1875 6.117188 4.066406 6.492188 3.933594 6.859375 C 3.800781 7.230469 3.621094 7.582031 3.492188 7.953125 C 3.324219 8.441406 3.140625 8.929688 3.015625 9.433594 C 3 9.503906 2.992188 9.574219 3.066406 9.625 C 3.164062 9.675781 3.238281 9.105469 3.285156 8.953125 Z M 3.285156 8.953125 "/>
<path style="fill:none;stroke-width:4;stroke-linecap:round;stroke-linejoin:miter;stroke:rgb(15.686275%,25.098041%,12.941177%);stroke-opacity:1;stroke-miterlimit:4;" d="M 87.231657 558.270683 C 87.231657 558.270683 94.726969 568.768079 109.525407 574.197766 C 127.591033 580.894381 136.816033 583.609225 151.230096 585.7811 C 171.986346 588.676933 183.325409 585.962089 183.325409 585.962089 " transform="matrix(0.0203252,0,0,0.0215827,0.00434263,-4.818539)"/>
<path style=" stroke:none;fill-rule:evenodd;fill:rgb(51.764709%,65.098041%,47.843137%);fill-opacity:1;" d="M 1.8125 7.609375 C 1.773438 7.613281 1.800781 7.671875 1.796875 7.695312 C 1.824219 7.882812 1.839844 8.066406 1.882812 8.238281 C 1.777344 8.285156 1.683594 8.339844 1.601562 8.410156 C 1.585938 8.335938 1.582031 8.257812 1.578125 8.179688 C 1.566406 8.152344 1.535156 8.183594 1.546875 8.207031 C 1.523438 8.296875 1.609375 8.414062 1.539062 8.46875 C 1.507812 8.511719 1.464844 8.550781 1.449219 8.609375 C 1.453125 8.636719 1.480469 8.632812 1.484375 8.609375 C 1.515625 8.570312 1.582031 8.421875 1.597656 8.519531 C 1.632812 8.625 1.679688 8.726562 1.734375 8.828125 C 1.679688 8.882812 1.625 8.945312 1.601562 9.035156 C 1.605469 9.066406 1.640625 9.058594 1.640625 9.03125 C 1.667969 8.976562 1.71875 8.871094 1.765625 8.878906 C 1.820312 8.980469 1.886719 9.078125 1.957031 9.175781 C 1.914062 9.226562 1.867188 9.28125 1.839844 9.351562 C 1.839844 9.378906 1.878906 9.382812 1.878906 9.355469 C 1.914062 9.316406 1.949219 9.207031 2 9.230469 C 2.070312 9.324219 2.140625 9.417969 2.21875 9.507812 C 2.242188 9.519531 2.253906 9.480469 2.230469 9.464844 C 2.160156 9.375 2.082031 9.28125 2.007812 9.183594 C 2.089844 9.101562 2.183594 9.03125 2.292969 8.960938 C 2.425781 9.082031 2.574219 9.195312 2.707031 9.304688 C 2.71875 9.332031 2.769531 9.332031 2.757812 9.300781 C 2.71875 9.253906 2.660156 9.21875 2.613281 9.175781 C 2.523438 9.097656 2.417969 9.023438 2.332031 8.9375 C 2.433594 8.875 2.570312 8.832031 2.710938 8.792969 C 2.789062 8.859375 2.867188 8.929688 2.949219 8.984375 C 2.984375 8.992188 2.988281 8.945312 2.957031 8.9375 C 2.90625 8.890625 2.789062 8.824219 2.777344 8.777344 C 2.84375 8.753906 2.945312 8.75 2.949219 8.671875 C 2.941406 8.644531 2.894531 8.660156 2.898438 8.683594 C 2.820312 8.738281 2.691406 8.765625 2.644531 8.667969 C 2.59375 8.597656 2.484375 8.503906 2.503906 8.441406 C 2.609375 8.417969 2.742188 8.308594 2.832031 8.339844 C 2.886719 8.386719 2.945312 8.441406 3.015625 8.46875 C 3.046875 8.46875 3.046875 8.425781 3.019531 8.421875 C 2.972656 8.386719 2.851562 8.328125 2.878906 8.289062 C 2.988281 8.242188 3.097656 8.199219 3.183594 8.144531 C 3.199219 8.121094 3.164062 8.097656 3.148438 8.117188 C 3.050781 8.167969 2.941406 8.21875 2.828125 8.265625 C 2.757812 8.191406 2.71875 8.097656 2.695312 8 C 2.675781 7.976562 2.640625 8.019531 2.660156 8.039062 C 2.660156 8.132812 2.765625 8.234375 2.757812 8.292969 C 2.660156 8.320312 2.53125 8.414062 2.449219 8.394531 C 2.414062 8.316406 2.332031 8.210938 2.347656 8.140625 C 2.382812 8.121094 2.445312 8.140625 2.46875 8.101562 C 2.476562 8.070312 2.433594 8.070312 2.414062 8.082031 C 2.273438 8.152344 2.300781 7.980469 2.277344 7.898438 C 2.28125 7.878906 2.277344 7.8125 2.242188 7.839844 C 2.210938 7.886719 2.25 7.941406 2.246094 7.988281 C 2.246094 8.042969 2.3125 8.132812 2.210938 8.125 C 2.105469 8.144531 2.007812 8.175781 1.917969 8.21875 C 1.871094 8.03125 1.859375 7.828125 1.828125 7.617188 C 1.824219 7.613281 1.816406 7.609375 1.8125 7.609375 Z M 2.285156 8.152344 C 2.304688 8.25 2.386719 8.355469 2.402344 8.4375 C 2.273438 8.484375 2.160156 8.535156 2.0625 8.589844 C 2.003906 8.480469 1.957031 8.371094 1.929688 8.257812 C 2.035156 8.203125 2.15625 8.175781 2.285156 8.152344 Z M 1.894531 8.277344 C 1.921875 8.390625 1.96875 8.5 2.027344 8.609375 C 1.921875 8.667969 1.835938 8.734375 1.757812 8.800781 C 1.695312 8.6875 1.644531 8.574219 1.613281 8.449219 C 1.695312 8.378906 1.789062 8.328125 1.894531 8.277344 Z M 2.4375 8.46875 C 2.496094 8.570312 2.574219 8.667969 2.671875 8.757812 C 2.53125 8.796875 2.398438 8.84375 2.292969 8.90625 C 2.207031 8.820312 2.136719 8.722656 2.082031 8.625 C 2.183594 8.570312 2.304688 8.519531 2.4375 8.46875 Z M 2.046875 8.644531 C 2.101562 8.742188 2.171875 8.839844 2.257812 8.925781 C 2.152344 8.996094 2.058594 9.066406 1.980469 9.148438 C 1.90625 9.046875 1.835938 8.941406 1.777344 8.839844 C 1.859375 8.773438 1.941406 8.707031 2.046875 8.644531 Z M 2.046875 8.644531 "/>
<path style=" stroke:none;fill-rule:evenodd;fill:rgb(15.686275%,25.098041%,12.941177%);fill-opacity:1;" d="M 1.820312 7.601562 C 1.78125 7.605469 1.804688 7.664062 1.804688 7.6875 C 1.828125 7.875 1.847656 8.050781 1.890625 8.214844 C 1.785156 8.269531 1.691406 8.328125 1.609375 8.402344 C 1.589844 8.328125 1.585938 8.246094 1.585938 8.167969 C 1.574219 8.144531 1.542969 8.175781 1.554688 8.199219 C 1.53125 8.289062 1.617188 8.402344 1.546875 8.460938 C 1.515625 8.503906 1.472656 8.546875 1.457031 8.601562 C 1.460938 8.628906 1.488281 8.625 1.492188 8.601562 C 1.519531 8.5625 1.589844 8.414062 1.605469 8.511719 C 1.636719 8.617188 1.683594 8.714844 1.742188 8.816406 C 1.6875 8.875 1.632812 8.9375 1.605469 9.027344 C 1.609375 9.058594 1.644531 9.050781 1.644531 9.023438 C 1.675781 8.96875 1.722656 8.859375 1.769531 8.867188 C 1.828125 8.96875 1.890625 9.066406 1.964844 9.164062 C 1.921875 9.21875 1.871094 9.273438 1.84375 9.34375 C 1.847656 9.375 1.886719 9.375 1.886719 9.347656 C 1.921875 9.308594 1.957031 9.195312 2.003906 9.21875 C 2.078125 9.3125 2.148438 9.410156 2.222656 9.5 C 2.25 9.511719 2.261719 9.472656 2.238281 9.457031 C 2.164062 9.367188 2.089844 9.269531 2.015625 9.175781 C 2.097656 9.085938 2.191406 9.011719 2.300781 8.933594 C 2.433594 9.058594 2.582031 9.179688 2.714844 9.296875 C 2.726562 9.324219 2.777344 9.324219 2.765625 9.289062 C 2.726562 9.246094 2.667969 9.207031 2.621094 9.160156 C 2.527344 9.078125 2.425781 9 2.335938 8.914062 C 2.441406 8.847656 2.578125 8.800781 2.71875 8.765625 C 2.796875 8.835938 2.875 8.910156 2.957031 8.972656 C 2.988281 8.980469 2.992188 8.933594 2.964844 8.925781 C 2.910156 8.871094 2.792969 8.796875 2.785156 8.75 C 2.847656 8.730469 2.953125 8.730469 2.957031 8.652344 C 2.949219 8.621094 2.902344 8.632812 2.902344 8.660156 C 2.824219 8.710938 2.699219 8.734375 2.652344 8.632812 C 2.601562 8.5625 2.492188 8.464844 2.507812 8.402344 C 2.613281 8.382812 2.75 8.277344 2.839844 8.3125 C 2.894531 8.363281 2.953125 8.417969 3.023438 8.449219 C 3.054688 8.449219 3.050781 8.40625 3.023438 8.402344 C 2.980469 8.367188 2.859375 8.300781 2.886719 8.265625 C 2.996094 8.222656 3.101562 8.1875 3.1875 8.132812 C 3.203125 8.109375 3.171875 8.085938 3.15625 8.105469 C 3.058594 8.152344 2.949219 8.195312 2.832031 8.238281 C 2.765625 8.160156 2.726562 8.070312 2.703125 7.972656 C 2.679688 7.953125 2.644531 7.992188 2.664062 8.011719 C 2.667969 8.101562 2.773438 8.203125 2.765625 8.265625 C 2.664062 8.285156 2.535156 8.375 2.457031 8.359375 C 2.417969 8.277344 2.339844 8.175781 2.351562 8.109375 C 2.390625 8.089844 2.453125 8.109375 2.476562 8.070312 C 2.484375 8.039062 2.441406 8.042969 2.421875 8.050781 C 2.28125 8.121094 2.308594 7.957031 2.285156 7.878906 C 2.285156 7.855469 2.285156 7.796875 2.246094 7.820312 C 2.21875 7.867188 2.253906 7.917969 2.253906 7.964844 C 2.253906 8.015625 2.316406 8.101562 2.21875 8.09375 C 2.113281 8.117188 2.015625 8.152344 1.925781 8.199219 C 1.878906 8.015625 1.867188 7.816406 1.832031 7.609375 C 1.832031 7.605469 1.824219 7.601562 1.820312 7.601562 Z M 2.292969 8.121094 C 2.3125 8.214844 2.394531 8.316406 2.40625 8.398438 C 2.28125 8.445312 2.167969 8.5 2.066406 8.558594 C 2.011719 8.453125 1.964844 8.347656 1.9375 8.234375 C 2.042969 8.175781 2.160156 8.144531 2.292969 8.121094 Z M 1.902344 8.253906 C 1.929688 8.367188 1.976562 8.472656 2.035156 8.582031 C 1.929688 8.648438 1.84375 8.71875 1.765625 8.789062 C 1.703125 8.675781 1.652344 8.5625 1.621094 8.441406 C 1.703125 8.367188 1.796875 8.308594 1.902344 8.253906 Z M 2.441406 8.429688 C 2.503906 8.53125 2.582031 8.632812 2.679688 8.726562 C 2.539062 8.761719 2.40625 8.8125 2.300781 8.878906 C 2.214844 8.789062 2.144531 8.695312 2.089844 8.597656 C 2.191406 8.535156 2.3125 8.480469 2.441406 8.429688 Z M 2.054688 8.617188 C 2.109375 8.714844 2.179688 8.8125 2.265625 8.902344 C 2.160156 8.976562 2.066406 9.050781 1.988281 9.136719 C 1.910156 9.035156 1.84375 8.929688 1.785156 8.828125 C 1.863281 8.753906 1.949219 8.683594 2.054688 8.617188 Z M 2.054688 8.617188 "/>
<path style="fill:none;stroke-width:2;stroke-linecap:round;stroke-linejoin:miter;stroke:rgb(15.686275%,25.098041%,12.941177%);stroke-opacity:1;stroke-miterlimit:4;" d="M 179.097284 346.512866 C 179.097284 346.512866 167.566033 349.770678 161.992596 351.218595 C 156.034783 352.847501 149.692596 351.580574 143.734783 350.675626 C 142.005095 350.494637 140.659783 348.684741 139.122283 347.598803 C 138.54572 347.236824 137.969158 346.693855 137.392595 346.331876 " transform="matrix(0.0203252,0,0,0.0215827,0.00434263,-4.818539)"/>
<path style="fill:none;stroke-width:2;stroke-linecap:butt;stroke-linejoin:miter;stroke:rgb(15.686275%,25.098041%,12.941177%);stroke-opacity:1;stroke-miterlimit:4;" d="M 79.928532 483.521983 C 79.928532 483.521983 117.981657 504.335786 133.16447 494.381358 C 144.119158 487.503754 151.998846 470.671722 153.536346 463.251149 C 154.881658 457.459483 143.15822 454.02068 144.119158 448.048024 C 144.503533 445.152191 151.230096 445.152191 150.845721 442.256357 C 150.269158 438.455576 140.08322 441.532399 139.891033 437.731618 C 139.698845 432.48292 151.806658 435.197763 153.728533 430.311045 C 156.034783 424.519378 145.848845 418.546721 147.962908 412.936044 C 151.806658 403.162606 165.067596 398.999846 175.445721 397.732919 C 201.775409 394.656096 251.74416 418.908701 251.74416 418.908701 " transform="matrix(0.0203252,0,0,0.0215827,0.00434263,-4.818539)"/>
<path style=" stroke:none;fill-rule:evenodd;fill:rgb(51.764709%,65.098041%,47.843137%);fill-opacity:1;" d="M 2.523438 3.386719 C 2.320312 3.390625 2.132812 3.554688 1.996094 3.714844 C 1.929688 3.792969 1.882812 3.816406 1.867188 4.003906 C 1.96875 3.898438 2.097656 3.777344 2.230469 3.695312 C 2.382812 3.601562 2.710938 3.679688 2.71875 3.496094 C 2.722656 3.417969 2.597656 3.382812 2.523438 3.386719 Z M 2.523438 3.386719 "/>
<path style=" stroke:none;fill-rule:evenodd;fill:rgb(51.764709%,65.098041%,47.843137%);fill-opacity:1;" d="M 2.328125 3.882812 C 2.195312 3.886719 2.078125 3.992188 1.988281 4.09375 C 1.945312 4.144531 1.914062 4.160156 1.902344 4.28125 C 1.96875 4.214844 2.054688 4.136719 2.140625 4.082031 C 2.238281 4.023438 2.449219 4.074219 2.457031 3.953125 C 2.457031 3.902344 2.375 3.878906 2.328125 3.882812 Z M 2.328125 3.882812 "/>
<path style=" stroke:none;fill-rule:evenodd;fill:rgb(51.764709%,65.098041%,47.843137%);fill-opacity:1;" d="M 2.144531 4.308594 C 2.074219 4.3125 2.007812 4.371094 1.957031 4.425781 C 1.933594 4.457031 1.917969 4.464844 1.910156 4.53125 C 1.945312 4.492188 1.992188 4.449219 2.042969 4.421875 C 2.097656 4.386719 2.214844 4.414062 2.21875 4.347656 C 2.21875 4.320312 2.171875 4.308594 2.144531 4.308594 Z M 2.144531 4.308594 "/>
<path style=" stroke:none;fill-rule:evenodd;fill:rgb(51.764709%,65.098041%,47.843137%);fill-opacity:1;" d="M 2.902344 7.265625 C 3.160156 7.261719 3.398438 7.128906 3.574219 7 C 3.660156 6.9375 3.71875 6.917969 3.742188 6.769531 C 3.613281 6.851562 3.445312 6.953125 3.273438 7.015625 C 3.078125 7.089844 2.660156 7.027344 2.648438 7.175781 C 2.644531 7.242188 2.804688 7.265625 2.902344 7.265625 Z M 2.902344 7.265625 "/>
<path style=" stroke:none;fill-rule:evenodd;fill:rgb(51.764709%,65.098041%,47.843137%);fill-opacity:1;" d="M 3.148438 6.867188 C 3.316406 6.863281 3.46875 6.777344 3.585938 6.695312 C 3.640625 6.65625 3.679688 6.644531 3.691406 6.546875 C 3.609375 6.601562 3.503906 6.664062 3.390625 6.707031 C 3.265625 6.753906 2.996094 6.714844 2.988281 6.808594 C 2.984375 6.851562 3.089844 6.867188 3.148438 6.867188 Z M 3.148438 6.867188 "/>
<path style=" stroke:none;fill-rule:evenodd;fill:rgb(51.764709%,65.098041%,47.843137%);fill-opacity:1;" d="M 3.382812 6.523438 C 3.476562 6.523438 3.5625 6.472656 3.625 6.429688 C 3.65625 6.40625 3.675781 6.398438 3.683594 6.34375 C 3.636719 6.375 3.578125 6.410156 3.515625 6.433594 C 3.445312 6.460938 3.296875 6.4375 3.292969 6.492188 C 3.289062 6.515625 3.347656 6.523438 3.382812 6.523438 Z M 3.382812 6.523438 "/>
<path style=" stroke:none;fill-rule:nonzero;fill:rgb(88.235295%,83.92157%,72.549021%);fill-opacity:1;" d="M 9.886719 5.945312 C 9.894531 6.011719 9.914062 6.058594 9.941406 6.089844 C 9.964844 6.121094 10 6.140625 10.039062 6.15625 C 10.078125 6.167969 10.125 6.175781 10.171875 6.1875 C 10.21875 6.195312 10.265625 6.203125 10.316406 6.207031 C 10.367188 6.214844 10.414062 6.214844 10.457031 6.210938 C 10.5 6.207031 10.542969 6.195312 10.574219 6.183594 C 10.605469 6.167969 10.632812 6.148438 10.648438 6.121094 C 10.664062 6.09375 10.667969 6.058594 10.660156 6.015625 C 10.652344 5.972656 10.636719 5.941406 10.613281 5.921875 C 10.589844 5.902344 10.558594 5.894531 10.523438 5.894531 C 10.488281 5.890625 10.449219 5.894531 10.40625 5.898438 C 10.363281 5.898438 10.316406 5.898438 10.269531 5.890625 C 10.222656 5.878906 10.171875 5.855469 10.125 5.832031 C 10.078125 5.808594 10.03125 5.789062 9.992188 5.785156 C 9.953125 5.777344 9.921875 5.785156 9.902344 5.8125 C 9.882812 5.835938 9.894531 6.011719 9.886719 5.945312 Z M 9.886719 5.945312 "/>
<path style=" stroke:none;fill-rule:nonzero;fill:rgb(22.352941%,27.450982%,33.333334%);fill-opacity:1;" d="M 9.976562 5.75 C 10.011719 5.75 10.054688 5.761719 10.101562 5.78125 C 10.152344 5.800781 10.207031 5.824219 10.261719 5.835938 C 10.320312 5.847656 10.371094 5.851562 10.421875 5.847656 C 10.46875 5.847656 10.515625 5.847656 10.558594 5.851562 C 10.597656 5.855469 10.636719 5.871094 10.664062 5.894531 C 10.691406 5.921875 10.710938 5.957031 10.722656 6.003906 C 10.730469 6.050781 10.726562 6.09375 10.707031 6.125 C 10.691406 6.160156 10.660156 6.183594 10.621094 6.203125 C 10.585938 6.222656 10.539062 6.238281 10.488281 6.246094 C 10.4375 6.253906 10.382812 6.253906 10.324219 6.25 C 10.265625 6.246094 10.210938 6.234375 10.160156 6.226562 C 10.109375 6.214844 10.0625 6.207031 10.019531 6.191406 C 10.003906 6.183594 9.988281 6.175781 9.976562 6.167969 C 9.949219 6.152344 9.941406 6.078125 9.96875 6.101562 C 9.992188 6.125 10.019531 6.136719 10.050781 6.148438 C 10.085938 6.164062 10.128906 6.171875 10.175781 6.179688 C 10.21875 6.1875 10.265625 6.195312 10.316406 6.203125 C 10.363281 6.207031 10.410156 6.207031 10.449219 6.203125 C 10.492188 6.199219 10.53125 6.191406 10.5625 6.175781 C 10.59375 6.164062 10.617188 6.144531 10.632812 6.117188 C 10.648438 6.09375 10.652344 6.058594 10.644531 6.019531 C 10.636719 5.976562 10.621094 5.949219 10.597656 5.929688 C 10.578125 5.910156 10.546875 5.902344 10.511719 5.898438 C 10.480469 5.898438 10.441406 5.902344 10.402344 5.902344 C 10.359375 5.90625 10.316406 5.902344 10.269531 5.894531 C 10.222656 5.882812 10.175781 5.859375 10.128906 5.839844 C 10.082031 5.816406 10.039062 5.796875 10.003906 5.792969 C 10 5.792969 9.992188 5.792969 9.988281 5.789062 C 9.976562 5.789062 9.96875 5.789062 9.957031 5.792969 C 9.945312 5.796875 9.929688 5.75 9.960938 5.75 C 9.964844 5.75 9.976562 5.753906 9.976562 5.75 Z M 9.976562 5.75 "/>
<path style=" stroke:none;fill-rule:nonzero;fill:rgb(88.235295%,83.92157%,72.549021%);fill-opacity:1;" d="M 9.0625 8.683594 C 9.09375 8.621094 9.121094 8.582031 9.152344 8.5625 C 9.1875 8.546875 9.226562 8.550781 9.265625 8.5625 C 9.304688 8.578125 9.339844 8.597656 9.375 8.621094 C 9.414062 8.644531 9.453125 8.667969 9.515625 8.707031 C 9.578125 8.742188 9.585938 8.746094 9.648438 8.792969 C 9.710938 8.84375 9.765625 8.886719 9.804688 8.933594 C 9.847656 8.976562 9.875 9.019531 9.886719 9.0625 C 9.898438 9.105469 9.894531 9.152344 9.867188 9.199219 C 9.839844 9.246094 9.800781 9.269531 9.761719 9.273438 C 9.71875 9.277344 9.675781 9.265625 9.625 9.238281 C 9.578125 9.214844 9.523438 9.171875 9.460938 9.125 C 9.394531 9.074219 9.367188 9.046875 9.328125 9.015625 C 9.285156 8.980469 9.261719 8.96875 9.230469 8.957031 C 9.199219 8.945312 9.148438 8.929688 9.105469 8.910156 C 9.058594 8.890625 9.027344 8.867188 9.019531 8.832031 C 9.011719 8.792969 9.105469 8.601562 9.0625 8.683594 Z M 9.0625 8.683594 "/>
<path style=" stroke:none;fill-rule:nonzero;fill:rgb(22.352941%,27.450982%,33.333334%);fill-opacity:1;" d="M 9.058594 8.933594 C 9.097656 8.953125 9.148438 8.972656 9.183594 8.988281 C 9.226562 9.003906 9.246094 9.015625 9.289062 9.054688 C 9.328125 9.089844 9.371094 9.125 9.445312 9.179688 C 9.519531 9.230469 9.582031 9.273438 9.640625 9.296875 C 9.699219 9.324219 9.75 9.332031 9.800781 9.320312 C 9.847656 9.3125 9.890625 9.285156 9.921875 9.234375 C 9.953125 9.183594 9.957031 9.128906 9.945312 9.078125 C 9.933594 9.027344 9.90625 8.976562 9.863281 8.925781 C 9.820312 8.875 9.757812 8.820312 9.6875 8.765625 C 9.617188 8.707031 9.597656 8.695312 9.523438 8.652344 C 9.453125 8.613281 9.40625 8.585938 9.363281 8.5625 C 9.320312 8.539062 9.277344 8.515625 9.234375 8.503906 C 9.21875 8.5 9.203125 8.496094 9.1875 8.496094 C 9.15625 8.496094 9.160156 8.578125 9.191406 8.570312 C 9.21875 8.5625 9.242188 8.578125 9.269531 8.589844 C 9.304688 8.601562 9.339844 8.628906 9.371094 8.648438 C 9.402344 8.667969 9.445312 8.675781 9.492188 8.707031 C 9.542969 8.734375 9.539062 8.734375 9.601562 8.777344 C 9.660156 8.824219 9.710938 8.867188 9.753906 8.914062 C 9.792969 8.957031 9.820312 8.996094 9.832031 9.039062 C 9.847656 9.082031 9.84375 9.125 9.820312 9.167969 C 9.796875 9.207031 9.761719 9.226562 9.726562 9.226562 C 9.6875 9.226562 9.648438 9.1875 9.601562 9.15625 C 9.558594 9.128906 9.5 9.089844 9.4375 9.046875 C 9.378906 9.003906 9.382812 9.011719 9.34375 8.988281 C 9.304688 8.960938 9.273438 8.957031 9.242188 8.949219 C 9.207031 8.941406 9.164062 8.929688 9.121094 8.910156 C 9.117188 8.90625 9.113281 8.90625 9.105469 8.902344 C 9.09375 8.894531 9.082031 8.890625 9.074219 8.882812 C 9.0625 8.871094 9.011719 8.90625 9.042969 8.925781 C 9.050781 8.925781 9.066406 8.929688 9.058594 8.933594 Z M 9.058594 8.933594 "/>
<path style=" stroke:none;fill-rule:nonzero;fill:rgb(58.823532%,83.92157%,100%);fill-opacity:1;" d="M 8.011719 1.105469 C 8.03125 1.175781 8.078125 1.234375 8.132812 1.28125 C 8.191406 1.324219 8.257812 1.359375 8.324219 1.375 C 8.390625 1.394531 8.457031 1.402344 8.523438 1.390625 C 8.589844 1.378906 8.667969 1.359375 8.730469 1.316406 C 8.789062 1.273438 8.816406 1.214844 8.832031 1.15625 C 8.851562 1.101562 8.867188 1.039062 8.910156 0.964844 C 8.953125 0.890625 8.992188 0.816406 8.996094 0.757812 C 9 0.699219 8.992188 0.648438 8.972656 0.597656 C 8.953125 0.550781 8.925781 0.511719 8.886719 0.484375 C 8.851562 0.457031 8.808594 0.4375 8.757812 0.429688 C 8.710938 0.417969 8.652344 0.417969 8.59375 0.421875 C 8.535156 0.429688 8.472656 0.445312 8.410156 0.46875 C 8.34375 0.496094 8.28125 0.527344 8.226562 0.566406 C 8.171875 0.609375 8.125 0.65625 8.089844 0.707031 C 8.050781 0.761719 8.023438 0.820312 8.011719 0.882812 C 8 0.945312 7.992188 1.035156 8.011719 1.105469 Z M 8.011719 1.105469 "/>
<path style=" stroke:none;fill-rule:nonzero;fill:rgb(22.352941%,27.450982%,33.333334%);fill-opacity:1;" d="M 8.445312 0.417969 C 8.496094 0.402344 8.546875 0.390625 8.597656 0.386719 C 8.660156 0.378906 8.722656 0.382812 8.777344 0.394531 C 8.832031 0.402344 8.878906 0.425781 8.921875 0.453125 C 8.960938 0.484375 8.992188 0.523438 9.015625 0.578125 C 9.035156 0.628906 9.046875 0.6875 9.042969 0.75 C 9.042969 0.8125 9.011719 0.890625 8.964844 0.972656 C 8.914062 1.050781 8.894531 1.121094 8.878906 1.179688 C 8.859375 1.242188 8.816406 1.292969 8.738281 1.332031 C 8.730469 1.335938 8.714844 1.3125 8.722656 1.308594 C 8.78125 1.261719 8.800781 1.199219 8.824219 1.152344 C 8.84375 1.097656 8.859375 1.035156 8.902344 0.964844 C 8.945312 0.890625 8.984375 0.820312 8.984375 0.761719 C 8.988281 0.707031 8.980469 0.652344 8.964844 0.605469 C 8.945312 0.5625 8.917969 0.523438 8.882812 0.496094 C 8.84375 0.46875 8.804688 0.453125 8.753906 0.441406 C 8.707031 0.429688 8.652344 0.429688 8.59375 0.4375 C 8.566406 0.441406 8.535156 0.445312 8.503906 0.453125 C 8.472656 0.460938 8.441406 0.46875 8.410156 0.484375 C 8.347656 0.507812 8.289062 0.539062 8.234375 0.578125 C 8.183594 0.617188 8.132812 0.660156 8.097656 0.714844 C 8.0625 0.765625 8.035156 0.824219 8.023438 0.882812 C 8.011719 0.945312 8.003906 1.03125 8.023438 1.097656 C 8.039062 1.15625 8.070312 1.207031 8.113281 1.246094 C 8.121094 1.253906 8.082031 1.289062 8.058594 1.269531 C 8.011719 1.230469 7.984375 1.175781 7.96875 1.117188 C 7.945312 1.039062 7.949219 0.945312 7.960938 0.878906 C 7.972656 0.808594 8.003906 0.746094 8.042969 0.6875 C 8.085938 0.628906 8.136719 0.578125 8.195312 0.535156 C 8.253906 0.496094 8.320312 0.460938 8.390625 0.433594 C 8.410156 0.429688 8.425781 0.421875 8.445312 0.417969 Z M 8.445312 0.417969 "/>
<path style=" stroke:none;fill-rule:nonzero;fill:rgb(22.352941%,27.450982%,33.333334%);fill-opacity:1;" d="M 8.855469 0.824219 C 8.847656 0.808594 8.824219 0.800781 8.789062 0.808594 C 8.734375 0.816406 8.667969 0.871094 8.628906 0.914062 C 8.609375 0.941406 8.585938 0.964844 8.570312 0.992188 C 8.566406 1.003906 8.5625 1.011719 8.5625 1.027344 C 8.574219 1.027344 8.585938 1.011719 8.59375 1 C 8.621094 0.953125 8.660156 0.910156 8.710938 0.882812 C 8.75 0.859375 8.753906 0.84375 8.796875 0.828125 C 8.820312 0.820312 8.832031 0.828125 8.855469 0.824219 Z M 8.855469 0.824219 "/>
<path style=" stroke:none;fill-rule:nonzero;fill:rgb(22.352941%,27.450982%,33.333334%);fill-opacity:1;" d="M 8.636719 0.90625 C 8.625 0.894531 8.640625 0.933594 8.65625 0.9375 C 8.703125 0.960938 8.746094 0.988281 8.792969 1.015625 C 8.808594 1.023438 8.8125 1.003906 8.800781 0.996094 C 8.789062 0.984375 8.773438 0.976562 8.761719 0.96875 C 8.746094 0.960938 8.734375 0.957031 8.722656 0.949219 C 8.695312 0.9375 8.683594 0.917969 8.660156 0.902344 C 8.652344 0.894531 8.640625 0.914062 8.636719 0.90625 Z M 8.636719 0.90625 "/>
<path style=" stroke:none;fill-rule:evenodd;fill:rgb(22.352941%,27.450982%,33.333334%);fill-opacity:1;" d="M 4.570312 2.875 C 4.6875 2.28125 5.242188 1.921875 5.992188 1.5625 C 6.847656 1.15625 7.652344 0.960938 8.335938 1.039062 C 8.746094 1.085938 9.15625 1.210938 9.511719 1.542969 C 9.917969 1.921875 10.179688 2.488281 10.292969 3.050781 C 10.570312 4.453125 10.421875 5.992188 9.941406 7.332031 C 9.6875 8.039062 9.386719 8.746094 8.8125 9.191406 C 8.109375 9.734375 7.210938 10.089844 6.339844 10.085938 C 5.449219 10.082031 4.28125 9.953125 3.8125 9.144531 C 3.570312 8.734375 3.78125 8.140625 3.976562 7.703125 C 4.351562 6.867188 4.539062 6.511719 4.632812 5.695312 C 4.792969 4.332031 4.40625 3.730469 4.570312 2.875 Z M 4.570312 2.875 "/>
<path style=" stroke:none;fill-rule:evenodd;fill:rgb(58.823532%,83.92157%,100%);fill-opacity:1;" d="M 8.117188 1.144531 C 7.515625 1.136719 6.816406 1.324219 6.070312 1.675781 C 5.695312 1.851562 5.375 2.027344 5.144531 2.222656 C 4.914062 2.417969 4.773438 2.617188 4.71875 2.867188 C 4.636719 3.265625 4.683594 3.601562 4.738281 4.039062 C 4.792969 4.472656 4.847656 4.996094 4.773438 5.714844 C 4.679688 6.574219 4.484375 6.980469 4.125 7.832031 C 4.03125 8.046875 3.9375 8.296875 3.898438 8.53125 C 3.859375 8.765625 3.875 8.96875 3.964844 9.125 C 4.171875 9.484375 4.539062 9.703125 4.976562 9.835938 C 5.414062 9.964844 5.914062 10 6.355469 10 C 7.183594 10.003906 8.054688 9.648438 8.738281 9.109375 C 9.269531 8.6875 9.570312 8 9.824219 7.28125 C 10.304688 5.9375 10.457031 4.394531 10.1875 3.027344 C 10.082031 2.492188 9.828125 1.957031 9.457031 1.613281 C 9.132812 1.316406 8.761719 1.203125 8.367188 1.160156 C 8.285156 1.152344 8.199219 1.144531 8.117188 1.144531 Z M 8.117188 1.144531 "/>
<path style=" stroke:none;fill-rule:nonzero;fill:rgb(58.823532%,83.92157%,100%);fill-opacity:1;" d="M 6.125 1.777344 C 6.167969 1.859375 6.238281 1.914062 6.3125 1.953125 C 6.386719 1.988281 6.464844 2.003906 6.539062 2.003906 C 6.613281 2.003906 6.683594 1.988281 6.75 1.949219 C 6.816406 1.914062 6.894531 1.863281 6.941406 1.789062 C 6.988281 1.714844 6.992188 1.628906 6.988281 1.550781 C 6.984375 1.472656 6.976562 1.382812 6.992188 1.269531 C 7.007812 1.15625 7.019531 1.046875 6.996094 0.96875 C 6.976562 0.886719 6.941406 0.816406 6.902344 0.757812 C 6.859375 0.695312 6.808594 0.652344 6.757812 0.625 C 6.703125 0.59375 6.648438 0.578125 6.589844 0.578125 C 6.53125 0.578125 6.46875 0.59375 6.410156 0.621094 C 6.351562 0.652344 6.296875 0.695312 6.242188 0.753906 C 6.1875 0.816406 6.144531 0.886719 6.109375 0.964844 C 6.074219 1.046875 6.050781 1.132812 6.039062 1.222656 C 6.027344 1.308594 6.023438 1.402344 6.039062 1.488281 C 6.054688 1.578125 6.078125 1.695312 6.125 1.777344 Z M 6.125 1.777344 "/>
<path style=" stroke:none;fill-rule:nonzero;fill:rgb(22.352941%,27.450982%,33.333334%);fill-opacity:1;" d="M 6.257812 0.671875 C 6.304688 0.632812 6.351562 0.597656 6.402344 0.578125 C 6.464844 0.546875 6.53125 0.53125 6.597656 0.53125 C 6.660156 0.53125 6.726562 0.546875 6.785156 0.578125 C 6.84375 0.609375 6.894531 0.65625 6.941406 0.722656 C 6.988281 0.785156 7.027344 0.863281 7.050781 0.949219 C 7.074219 1.035156 7.074219 1.144531 7.050781 1.265625 C 7.023438 1.445312 7.035156 1.5 7.003906 1.472656 C 6.976562 1.453125 6.957031 1.410156 6.980469 1.269531 C 6.996094 1.160156 7.007812 1.054688 6.988281 0.976562 C 6.964844 0.898438 6.933594 0.828125 6.894531 0.769531 C 6.851562 0.710938 6.804688 0.667969 6.753906 0.640625 C 6.703125 0.609375 6.644531 0.597656 6.589844 0.597656 C 6.53125 0.597656 6.472656 0.609375 6.414062 0.640625 C 6.386719 0.652344 6.359375 0.671875 6.328125 0.691406 C 6.300781 0.714844 6.273438 0.738281 6.25 0.769531 C 6.195312 0.828125 6.152344 0.898438 6.121094 0.976562 C 6.085938 1.050781 6.0625 1.136719 6.050781 1.222656 C 6.039062 1.3125 6.035156 1.398438 6.050781 1.484375 C 6.066406 1.570312 6.089844 1.6875 6.132812 1.765625 C 6.167969 1.832031 6.21875 1.882812 6.277344 1.914062 C 6.289062 1.921875 6.261719 1.980469 6.226562 1.960938 C 6.167969 1.933594 6.121094 1.875 6.082031 1.8125 C 6.035156 1.722656 6.003906 1.601562 5.988281 1.503906 C 5.972656 1.410156 5.976562 1.3125 5.988281 1.214844 C 6.003906 1.121094 6.03125 1.027344 6.066406 0.941406 C 6.105469 0.859375 6.15625 0.78125 6.214844 0.71875 C 6.226562 0.703125 6.242188 0.6875 6.257812 0.671875 Z M 6.257812 0.671875 "/>
<path style=" stroke:none;fill-rule:nonzero;fill:rgb(22.352941%,27.450982%,33.333334%);fill-opacity:1;" d="M 6.621094 1.09375 C 6.597656 1.085938 6.566406 1.105469 6.535156 1.15625 C 6.492188 1.234375 6.484375 1.371094 6.496094 1.460938 C 6.5 1.511719 6.5 1.5625 6.519531 1.609375 C 6.527344 1.625 6.535156 1.640625 6.550781 1.65625 C 6.5625 1.640625 6.554688 1.609375 6.550781 1.589844 C 6.53125 1.507812 6.523438 1.417969 6.542969 1.332031 C 6.554688 1.257812 6.542969 1.230469 6.566406 1.171875 C 6.582031 1.132812 6.605469 1.125 6.621094 1.09375 Z M 6.621094 1.09375 "/>
<path style=" stroke:none;fill-rule:nonzero;fill:rgb(22.352941%,27.450982%,33.333334%);fill-opacity:1;" d="M 6.492188 1.445312 C 6.46875 1.441406 6.527344 1.460938 6.546875 1.453125 C 6.617188 1.417969 6.691406 1.390625 6.765625 1.359375 C 6.789062 1.351562 6.777344 1.328125 6.753906 1.332031 C 6.730469 1.335938 6.707031 1.34375 6.6875 1.355469 C 6.664062 1.363281 6.648438 1.378906 6.625 1.382812 C 6.585938 1.398438 6.554688 1.394531 6.511719 1.40625 C 6.5 1.410156 6.503906 1.445312 6.492188 1.445312 Z M 6.492188 1.445312 "/>
<use xlink:href="#surface5" mask="url(#mask0)"/>
<path style=" stroke:none;fill-rule:nonzero;fill:rgb(88.235295%,83.92157%,72.549021%);fill-opacity:1;" d="M 5.105469 9.710938 C 5.171875 9.734375 5.210938 9.757812 5.234375 9.789062 C 5.257812 9.816406 5.261719 9.855469 5.257812 9.894531 C 5.253906 9.929688 5.242188 9.96875 5.230469 10.007812 C 5.21875 10.042969 5.203125 10.085938 5.183594 10.148438 C 5.164062 10.210938 5.160156 10.21875 5.128906 10.289062 C 5.097656 10.355469 5.070312 10.410156 5.039062 10.453125 C 5.007812 10.496094 4.976562 10.527344 4.9375 10.546875 C 4.898438 10.5625 4.855469 10.566406 4.808594 10.542969 C 4.761719 10.523438 4.734375 10.488281 4.71875 10.449219 C 4.707031 10.410156 4.707031 10.367188 4.722656 10.316406 C 4.734375 10.269531 4.761719 10.210938 4.792969 10.144531 C 4.824219 10.078125 4.84375 10.046875 4.863281 10.003906 C 4.882812 9.960938 4.890625 9.9375 4.894531 9.90625 C 4.898438 9.875 4.902344 9.824219 4.910156 9.78125 C 4.917969 9.734375 4.933594 9.703125 4.964844 9.691406 C 4.996094 9.679688 5.191406 9.742188 5.105469 9.710938 Z M 5.105469 9.710938 "/>
<path style=" stroke:none;fill-rule:nonzero;fill:rgb(22.352941%,27.450982%,33.333334%);fill-opacity:1;" d="M 4.882812 9.738281 C 4.871094 9.78125 4.867188 9.832031 4.859375 9.867188 C 4.851562 9.90625 4.84375 9.929688 4.820312 9.972656 C 4.796875 10.015625 4.773438 10.0625 4.742188 10.136719 C 4.707031 10.214844 4.683594 10.277344 4.671875 10.335938 C 4.664062 10.394531 4.667969 10.445312 4.683594 10.492188 C 4.703125 10.539062 4.738281 10.578125 4.789062 10.601562 C 4.84375 10.625 4.890625 10.621094 4.933594 10.605469 C 4.980469 10.589844 5.019531 10.554688 5.054688 10.507812 C 5.09375 10.460938 5.128906 10.398438 5.164062 10.320312 C 5.199219 10.246094 5.210938 10.226562 5.230469 10.152344 C 5.253906 10.078125 5.269531 10.03125 5.28125 9.988281 C 5.292969 9.945312 5.304688 9.902344 5.304688 9.859375 C 5.304688 9.84375 5.304688 9.824219 5.300781 9.8125 C 5.296875 9.78125 5.222656 9.796875 5.234375 9.824219 C 5.25 9.847656 5.242188 9.871094 5.238281 9.902344 C 5.230469 9.9375 5.214844 9.972656 5.203125 10.003906 C 5.191406 10.039062 5.195312 10.078125 5.175781 10.128906 C 5.160156 10.179688 5.160156 10.175781 5.132812 10.238281 C 5.105469 10.304688 5.074219 10.355469 5.042969 10.402344 C 5.015625 10.445312 4.980469 10.476562 4.945312 10.492188 C 4.910156 10.511719 4.871094 10.511719 4.828125 10.492188 C 4.789062 10.476562 4.765625 10.445312 4.753906 10.410156 C 4.746094 10.375 4.777344 10.332031 4.792969 10.285156 C 4.808594 10.242188 4.832031 10.175781 4.859375 10.117188 C 4.886719 10.054688 4.878906 10.058594 4.890625 10.015625 C 4.90625 9.976562 4.902344 9.945312 4.902344 9.914062 C 4.902344 9.882812 4.90625 9.839844 4.914062 9.796875 C 4.914062 9.792969 4.917969 9.785156 4.917969 9.78125 C 4.921875 9.769531 4.925781 9.757812 4.929688 9.746094 C 4.9375 9.734375 4.894531 9.691406 4.886719 9.722656 C 4.882812 9.730469 4.886719 9.742188 4.882812 9.738281 Z M 4.882812 9.738281 "/>
<path style=" stroke:none;fill-rule:nonzero;fill:rgb(22.352941%,27.450982%,33.333334%);fill-opacity:1;" d="M 9.789062 2.707031 C 9.78125 2.832031 9.804688 2.972656 9.835938 3.117188 C 9.867188 3.257812 9.898438 3.40625 9.921875 3.558594 C 9.941406 3.710938 9.949219 3.863281 9.960938 4.007812 C 9.96875 4.15625 9.980469 4.289062 10.011719 4.398438 C 10.046875 4.511719 10.101562 4.589844 10.179688 4.640625 C 10.253906 4.691406 10.34375 4.769531 10.445312 4.761719 C 10.546875 4.757812 10.65625 4.71875 10.753906 4.652344 C 10.855469 4.585938 10.945312 4.484375 11.019531 4.355469 C 11.089844 4.222656 11.140625 4.074219 11.164062 3.917969 C 11.191406 3.761719 11.195312 3.601562 11.183594 3.449219 C 11.171875 3.292969 11.121094 3.097656 11.074219 2.964844 C 11.03125 2.835938 10.964844 2.71875 10.878906 2.617188 C 10.789062 2.515625 10.683594 2.441406 10.566406 2.390625 C 10.453125 2.34375 10.328125 2.316406 10.210938 2.320312 C 10.097656 2.320312 9.992188 2.351562 9.917969 2.417969 C 9.839844 2.484375 9.796875 2.582031 9.789062 2.707031 Z M 9.789062 2.707031 "/>
<path style=" stroke:none;fill-rule:nonzero;fill:rgb(100%,100%,100%);fill-opacity:1;" d="M 9.851562 2.742188 C 9.839844 2.855469 9.855469 2.984375 9.878906 3.117188 C 9.902344 3.25 9.929688 3.390625 9.953125 3.53125 C 9.976562 3.675781 9.992188 3.824219 10.007812 3.960938 C 10.027344 4.097656 10.042969 4.226562 10.082031 4.332031 C 10.117188 4.4375 10.167969 4.511719 10.234375 4.554688 C 10.300781 4.601562 10.382812 4.675781 10.46875 4.667969 C 10.558594 4.660156 10.652344 4.625 10.734375 4.558594 C 10.820312 4.492188 10.898438 4.398438 10.960938 4.273438 C 11.023438 4.152344 11.0625 4.015625 11.085938 3.871094 C 11.105469 3.726562 11.109375 3.578125 11.09375 3.4375 C 11.082031 3.296875 11.03125 3.109375 10.992188 2.992188 C 10.949219 2.871094 10.894531 2.761719 10.8125 2.667969 C 10.734375 2.578125 10.640625 2.507812 10.539062 2.460938 C 10.4375 2.417969 10.328125 2.394531 10.230469 2.394531 C 10.128906 2.398438 10.039062 2.425781 9.972656 2.484375 C 9.90625 2.542969 9.863281 2.628906 9.851562 2.742188 Z M 9.851562 2.742188 "/>
<path style=" stroke:none;fill-rule:nonzero;fill:rgb(22.352941%,27.450982%,33.333334%);fill-opacity:1;" d="M 10.777344 3.253906 C 10.824219 3.085938 10.960938 3 11.082031 3.066406 C 11.199219 3.128906 11.253906 3.316406 11.207031 3.480469 C 11.15625 3.648438 11.019531 3.734375 10.898438 3.671875 C 10.78125 3.605469 10.726562 3.421875 10.777344 3.253906 Z M 10.777344 3.253906 "/>
<path style=" stroke:none;fill-rule:nonzero;fill:rgb(100%,100%,100%);fill-opacity:1;" d="M 10.984375 3.195312 C 11.011719 3.113281 11.078125 3.074219 11.136719 3.105469 C 11.195312 3.136719 11.222656 3.226562 11.199219 3.308594 C 11.171875 3.390625 11.105469 3.433594 11.046875 3.402344 C 10.988281 3.371094 10.960938 3.277344 10.984375 3.195312 Z M 10.984375 3.195312 "/>
<path style=" stroke:none;fill-rule:nonzero;fill:rgb(18.039216%,20.392157%,21.176471%);fill-opacity:1;" d="M 10.21875 5.160156 L 10.097656 5.179688 L 10.023438 5.183594 C 10 5.1875 9.980469 5.203125 9.96875 5.21875 C 9.953125 5.238281 9.949219 5.265625 9.949219 5.289062 L 9.945312 5.441406 L 9.933594 5.589844 C 9.933594 5.617188 9.941406 5.640625 9.957031 5.65625 C 9.96875 5.671875 9.988281 5.679688 10.011719 5.675781 L 10.082031 5.667969 L 10.226562 5.648438 C 10.253906 5.644531 10.28125 5.628906 10.296875 5.609375 C 10.3125 5.589844 10.324219 5.566406 10.320312 5.539062 L 10.320312 5.390625 L 10.3125 5.242188 C 10.3125 5.21875 10.296875 5.195312 10.28125 5.179688 C 10.265625 5.164062 10.242188 5.15625 10.21875 5.160156 Z M 10.21875 5.160156 "/>
<path style=" stroke:none;fill-rule:nonzero;fill:rgb(100%,100%,100%);fill-opacity:1;" d="M 10.203125 5.207031 L 10.101562 5.222656 L 10.050781 5.226562 C 10.035156 5.226562 10.019531 5.238281 10.007812 5.253906 C 9.996094 5.269531 9.992188 5.289062 9.988281 5.3125 L 9.984375 5.433594 L 9.972656 5.558594 C 9.96875 5.582031 9.976562 5.597656 9.988281 5.613281 C 9.996094 5.625 10.015625 5.628906 10.03125 5.628906 L 10.082031 5.625 L 10.195312 5.609375 C 10.21875 5.605469 10.238281 5.59375 10.253906 5.578125 C 10.265625 5.5625 10.273438 5.539062 10.273438 5.519531 L 10.273438 5.277344 C 10.273438 5.253906 10.265625 5.234375 10.25 5.222656 C 10.238281 5.210938 10.21875 5.207031 10.203125 5.207031 Z M 10.203125 5.207031 "/>
<path style=" stroke:none;fill-rule:nonzero;fill:rgb(22.352941%,27.450982%,33.333334%);fill-opacity:1;" d="M 9.683594 5.125 C 9.6875 5.167969 9.710938 5.207031 9.742188 5.238281 C 9.773438 5.265625 9.816406 5.28125 9.867188 5.289062 C 9.917969 5.296875 9.96875 5.292969 10.023438 5.285156 C 10.078125 5.277344 10.128906 5.269531 10.183594 5.261719 C 10.234375 5.253906 10.28125 5.246094 10.324219 5.242188 C 10.363281 5.238281 10.398438 5.230469 10.425781 5.214844 C 10.453125 5.203125 10.476562 5.183594 10.488281 5.160156 C 10.503906 5.132812 10.507812 5.101562 10.503906 5.0625 C 10.5 5.023438 10.484375 4.980469 10.460938 4.941406 C 10.441406 4.902344 10.410156 4.863281 10.375 4.832031 C 10.34375 4.800781 10.300781 4.773438 10.257812 4.753906 C 10.214844 4.734375 10.164062 4.726562 10.109375 4.730469 C 10.054688 4.730469 10 4.746094 9.949219 4.765625 C 9.898438 4.789062 9.847656 4.820312 9.804688 4.859375 C 9.761719 4.894531 9.726562 4.9375 9.707031 4.984375 C 9.6875 5.03125 9.679688 5.085938 9.683594 5.125 Z M 9.683594 5.125 "/>
<path style=" stroke:none;fill-rule:nonzero;fill:rgb(88.235295%,81.568629%,79.607844%);fill-opacity:1;" d="M 9.851562 5.171875 C 9.878906 5.191406 9.910156 5.199219 9.949219 5.203125 C 9.984375 5.210938 10.027344 5.207031 10.066406 5.207031 C 10.109375 5.203125 10.152344 5.199219 10.191406 5.195312 C 10.230469 5.191406 10.269531 5.1875 10.300781 5.179688 C 10.332031 5.175781 10.359375 5.167969 10.378906 5.15625 C 10.402344 5.144531 10.417969 5.128906 10.425781 5.109375 C 10.4375 5.089844 10.441406 5.066406 10.4375 5.035156 C 10.429688 5.007812 10.417969 4.976562 10.402344 4.945312 C 10.386719 4.917969 10.363281 4.890625 10.335938 4.867188 C 10.308594 4.84375 10.277344 4.824219 10.242188 4.8125 C 10.207031 4.800781 10.167969 4.792969 10.125 4.796875 C 10.085938 4.796875 10.042969 4.808594 10.003906 4.828125 C 9.964844 4.84375 9.929688 4.867188 9.898438 4.898438 C 9.867188 4.925781 9.839844 4.957031 9.824219 4.992188 C 9.808594 5.027344 9.800781 5.0625 9.804688 5.09375 C 9.8125 5.128906 9.828125 5.152344 9.851562 5.171875 Z M 9.851562 5.171875 "/>
<path style=" stroke:none;fill-rule:nonzero;fill:rgb(22.352941%,27.450982%,33.333334%);fill-opacity:1;" d="M 9.9375 4.820312 C 9.949219 4.847656 9.96875 4.871094 9.996094 4.886719 C 10.023438 4.90625 10.058594 4.917969 10.09375 4.925781 C 10.128906 4.933594 10.167969 4.941406 10.203125 4.941406 C 10.242188 4.941406 10.277344 4.9375 10.308594 4.925781 C 10.34375 4.917969 10.371094 4.90625 10.390625 4.890625 C 10.414062 4.875 10.433594 4.859375 10.445312 4.839844 C 10.460938 4.820312 10.46875 4.796875 10.472656 4.773438 C 10.480469 4.746094 10.476562 4.722656 10.472656 4.695312 C 10.464844 4.667969 10.453125 4.644531 10.433594 4.621094 C 10.414062 4.601562 10.394531 4.582031 10.367188 4.570312 C 10.339844 4.554688 10.308594 4.546875 10.273438 4.542969 C 10.242188 4.539062 10.203125 4.539062 10.167969 4.550781 C 10.128906 4.558594 10.09375 4.574219 10.0625 4.589844 C 10.03125 4.609375 10 4.632812 9.980469 4.65625 C 9.957031 4.683594 9.941406 4.710938 9.933594 4.738281 C 9.925781 4.765625 9.925781 4.792969 9.9375 4.820312 Z M 9.9375 4.820312 "/>
<path style=" stroke:none;fill-rule:nonzero;fill:rgb(22.352941%,27.450982%,33.333334%);fill-opacity:1;" d="M 6.660156 3.566406 C 6.613281 3.792969 6.617188 4.027344 6.648438 4.25 C 6.683594 4.472656 6.753906 4.691406 6.851562 4.886719 C 6.945312 5.082031 7.074219 5.253906 7.226562 5.394531 C 7.382812 5.53125 7.5625 5.636719 7.773438 5.691406 C 7.984375 5.75 8.199219 5.753906 8.414062 5.710938 C 8.625 5.667969 8.828125 5.578125 9.011719 5.449219 C 9.195312 5.320312 9.359375 5.152344 9.488281 4.953125 C 9.617188 4.757812 9.710938 4.527344 9.757812 4.28125 C 9.804688 4.035156 9.800781 3.792969 9.757812 3.566406 C 9.714844 3.339844 9.625 3.132812 9.507812 2.949219 C 9.390625 2.769531 9.238281 2.613281 9.066406 2.496094 C 8.894531 2.378906 8.699219 2.296875 8.488281 2.261719 C 8.277344 2.222656 8.070312 2.234375 7.875 2.28125 C 7.675781 2.328125 7.492188 2.410156 7.328125 2.527344 C 7.160156 2.640625 7.015625 2.789062 6.902344 2.960938 C 6.785156 3.136719 6.703125 3.339844 6.660156 3.566406 Z M 6.660156 3.566406 "/>
<path style=" stroke:none;fill-rule:nonzero;fill:rgb(100%,100%,100%);fill-opacity:1;" d="M 6.773438 3.535156 C 6.726562 3.75 6.71875 3.96875 6.742188 4.183594 C 6.769531 4.402344 6.828125 4.613281 6.914062 4.800781 C 7 4.992188 7.117188 5.164062 7.261719 5.300781 C 7.40625 5.4375 7.578125 5.539062 7.777344 5.59375 C 7.976562 5.648438 8.183594 5.652344 8.386719 5.609375 C 8.585938 5.570312 8.78125 5.480469 8.957031 5.359375 C 9.132812 5.238281 9.285156 5.078125 9.410156 4.890625 C 9.53125 4.707031 9.625 4.492188 9.671875 4.261719 C 9.71875 4.035156 9.71875 3.808594 9.675781 3.597656 C 9.636719 3.390625 9.558594 3.195312 9.449219 3.027344 C 9.339844 2.859375 9.199219 2.71875 9.039062 2.605469 C 8.878906 2.496094 8.695312 2.417969 8.5 2.378906 C 8.304688 2.339844 8.113281 2.34375 7.929688 2.378906 C 7.746094 2.417969 7.574219 2.488281 7.417969 2.589844 C 7.261719 2.691406 7.125 2.820312 7.015625 2.980469 C 6.902344 3.136719 6.820312 3.324219 6.773438 3.535156 Z M 6.773438 3.535156 "/>
<path style=" stroke:none;fill-rule:nonzero;fill:rgb(22.352941%,27.450982%,33.333334%);fill-opacity:1;" d="M 8.53125 3.90625 C 8.574219 3.652344 8.804688 3.480469 9.046875 3.523438 C 9.285156 3.570312 9.449219 3.816406 9.40625 4.070312 C 9.363281 4.328125 9.132812 4.5 8.890625 4.453125 C 8.648438 4.410156 8.488281 4.164062 8.53125 3.90625 Z M 8.53125 3.90625 "/>
<path style=" stroke:none;fill-rule:nonzero;fill:rgb(100%,100%,100%);fill-opacity:1;" d="M 8.980469 3.773438 C 9.003906 3.644531 9.117188 3.5625 9.234375 3.585938 C 9.355469 3.605469 9.433594 3.726562 9.410156 3.851562 C 9.390625 3.980469 9.277344 4.0625 9.160156 4.042969 C 9.039062 4.019531 8.960938 3.898438 8.980469 3.773438 Z M 8.980469 3.773438 "/>
<use xlink:href="#surface8" mask="url(#mask1)"/>
<path style=" stroke:none;fill-rule:nonzero;fill:rgb(88.235295%,83.92157%,72.549021%);fill-opacity:1;" d="M 6.984375 6.117188 C 6.921875 6.125 6.878906 6.144531 6.847656 6.175781 C 6.8125 6.207031 6.792969 6.246094 6.78125 6.300781 C 6.765625 6.355469 6.753906 6.421875 6.746094 6.5 C 6.738281 6.574219 6.730469 6.65625 6.730469 6.742188 C 6.730469 6.824219 6.734375 6.902344 6.742188 6.972656 C 6.753906 7.039062 6.765625 7.101562 6.78125 7.152344 C 6.796875 7.199219 6.816406 7.238281 6.84375 7.265625 C 6.867188 7.292969 6.902344 7.308594 6.945312 7.304688 C 6.992188 7.300781 7.019531 7.277344 7.039062 7.246094 C 7.058594 7.210938 7.066406 7.171875 7.066406 7.121094 C 7.0625 7.070312 7.050781 7.011719 7.042969 6.945312 C 7.03125 6.875 7.019531 6.796875 7.023438 6.710938 C 7.027344 6.625 7.046875 6.53125 7.070312 6.449219 C 7.089844 6.371094 7.113281 6.300781 7.121094 6.25 C 7.132812 6.195312 7.125 6.160156 7.105469 6.140625 C 7.082031 6.117188 6.921875 6.125 6.984375 6.117188 Z M 6.984375 6.117188 "/>
<path style=" stroke:none;fill-rule:nonzero;fill:rgb(22.352941%,27.450982%,33.333334%);fill-opacity:1;" d="M 7.15625 6.226562 C 7.152344 6.273438 7.136719 6.335938 7.117188 6.40625 C 7.097656 6.492188 7.074219 6.589844 7.070312 6.691406 C 7.066406 6.789062 7.078125 6.878906 7.085938 6.957031 C 7.097656 7.035156 7.105469 7.101562 7.101562 7.15625 C 7.101562 7.214844 7.089844 7.261719 7.0625 7.300781 C 7.039062 7.335938 7 7.363281 6.953125 7.371094 C 6.902344 7.378906 6.863281 7.363281 6.832031 7.332031 C 6.800781 7.300781 6.773438 7.257812 6.753906 7.199219 C 6.734375 7.144531 6.71875 7.074219 6.707031 6.996094 C 6.695312 6.914062 6.691406 6.828125 6.691406 6.734375 C 6.691406 6.640625 6.699219 6.546875 6.710938 6.46875 C 6.71875 6.390625 6.730469 6.324219 6.75 6.269531 C 6.757812 6.25 6.765625 6.230469 6.773438 6.214844 C 6.789062 6.179688 6.855469 6.179688 6.832031 6.207031 C 6.8125 6.238281 6.796875 6.273438 6.785156 6.316406 C 6.769531 6.367188 6.757812 6.433594 6.75 6.507812 C 6.742188 6.582031 6.738281 6.660156 6.738281 6.742188 C 6.734375 6.820312 6.742188 6.894531 6.75 6.964844 C 6.757812 7.03125 6.769531 7.089844 6.785156 7.136719 C 6.800781 7.183594 6.820312 7.222656 6.84375 7.25 C 6.871094 7.277344 6.90625 7.292969 6.945312 7.285156 C 6.988281 7.28125 7.015625 7.257812 7.035156 7.226562 C 7.054688 7.195312 7.058594 7.15625 7.058594 7.105469 C 7.054688 7.058594 7.046875 7 7.035156 6.9375 C 7.027344 6.871094 7.015625 6.792969 7.019531 6.710938 C 7.019531 6.628906 7.039062 6.539062 7.0625 6.460938 C 7.082031 6.382812 7.105469 6.316406 7.113281 6.261719 C 7.113281 6.257812 7.113281 6.25 7.117188 6.246094 C 7.117188 6.230469 7.117188 6.214844 7.117188 6.203125 C 7.113281 6.191406 7.160156 6.167969 7.15625 6.207031 C 7.15625 6.214844 7.152344 6.226562 7.15625 6.226562 Z M 7.15625 6.226562 "/>
</g>
</svg>
